<?xml version="1.0" standalone="no"?>
<!DOCTYPE svg PUBLIC "-//W3C//DTD SVG 20010904//EN"
 "http://www.w3.org/TR/2001/REC-SVG-20010904/DTD/svg10.dtd">
<svg version="1.0" xmlns="http://www.w3.org/2000/svg"
 width="240.000000pt" height="240.000000pt" viewBox="0 0 240.000000 240.000000"
 preserveAspectRatio="xMidYMid meet">
<metadata>
Created by potrace 1.14, written by Peter Selinger 2001-2017
</metadata>
<g transform="translate(0.000000,240.000000) scale(0.100000,-0.100000)"
fill="#000000" stroke="none">
<path d="M1278 2197 c-14 -39 -29 -92 -33 -117 -3 -25 -16 -60 -28 -77 -24
-35 -44 -45 -27 -14 5 11 10 30 9 43 0 23 0 23 -9 2 -5 -12 -36 -43 -70 -69
-101 -78 -111 -106 -89 -255 10 -67 8 -82 -10 -135 -11 -33 -20 -51 -20 -39
-1 12 -15 47 -32 79 -17 31 -31 71 -31 88 -1 27 -2 28 -14 12 -49 -67 -7 -229
85 -328 14 -16 62 -54 105 -85 186 -131 252 -258 186 -355 -27 -40 -45 -49
-35 -17 9 30 -20 75 -71 110 -52 35 -50 41 -25 -57 18 -70 -21 -129 -69 -103
-28 15 -37 36 -45 115 -14 138 -55 191 -193 251 -101 45 -136 65 -174 102 -36
35 -38 39 -38 102 0 58 -4 73 -32 114 -27 41 -33 45 -41 31 -13 -24 -1 -125
23 -203 11 -35 20 -91 20 -125 0 -91 24 -131 155 -253 119 -111 141 -144 171
-259 16 -57 18 -143 5 -164 -7 -11 -13 -7 -25 20 -9 19 -14 27 -12 18 8 -30
-16 -99 -42 -119 -30 -24 -98 -27 -129 -5 -22 15 -103 171 -102 195 0 8 19 29
42 45 51 37 60 75 25 99 -12 9 -33 16 -46 16 -19 0 -21 -3 -12 -19 19 -36 10
-60 -41 -117 -62 -69 -88 -124 -89 -187 0 -63 19 -106 69 -152 47 -43 60 -89
41 -136 -19 -44 -52 -63 -102 -56 -54 7 -85 40 -97 100 -10 54 -35 86 -97 122
-44 26 -64 65 -64 123 0 13 -10 46 -21 73 -18 40 -20 60 -15 105 3 31 11 66
17 78 5 11 -10 -1 -35 -29 -63 -70 -89 -125 -80 -171 4 -23 1 -56 -11 -94 -14
-47 -15 -64 -6 -91 16 -45 4 -50 -29 -11 l-28 33 7 -38 c9 -48 23 -74 77 -145
70 -90 81 -142 44 -211 l-20 -37 1065 0 1066 0 -16 30 c-19 38 -19 88 1 136
21 51 14 115 -18 152 -43 51 -52 84 -34 127 29 68 10 174 -36 213 -13 10 -16
6 -22 -35 -4 -28 -21 -71 -40 -103 -48 -77 -52 -99 -26 -149 27 -51 21 -101
-17 -131 -33 -25 -65 -26 -88 0 -14 15 -17 31 -13 69 4 41 1 58 -18 88 -35 57
-31 77 20 112 57 39 86 77 86 110 0 33 -40 114 -79 159 l-29 33 9 -46 c17 -90
-20 -173 -93 -211 -71 -37 -148 4 -148 79 0 28 26 67 67 101 47 39 57 81 39
153 -15 58 -15 58 15 120 32 66 32 90 -1 133 -16 21 -20 22 -20 7 0 -10 -11
-44 -25 -77 -15 -34 -25 -79 -25 -106 0 -57 -24 -100 -64 -114 -25 -9 -35 -7
-56 9 -35 26 -30 84 16 183 42 91 47 155 16 197 -10 14 -48 46 -83 71 -77 55
-102 97 -93 157 14 94 -17 139 -141 209 -114 64 -130 82 -130 147 1 40 10 71
40 132 37 75 40 85 39 165 0 51 -6 98 -15 117 l-14 33 -27 -73z m-260 -1773
c67 -75 -42 -171 -113 -99 -29 28 -32 61 -9 93 33 47 82 49 122 6z m663 26
c21 0 49 -42 49 -72 0 -86 -116 -109 -150 -29 -9 24 -9 35 2 57 14 31 55 57
76 49 8 -3 18 -5 23 -5z m-246 -142 c-28 -91 -158 -113 -206 -34 -33 54 -30
56 97 56 115 0 115 0 109 -22z"/>
<path d="M1131 2096 c-8 -14 -12 -29 -8 -32 7 -7 29 34 25 47 -2 6 -10 -1 -17
-15z"/>
<path d="M1730 2073 c0 -20 20 -66 47 -105 19 -29 24 -45 19 -70 -3 -18 -1
-40 4 -48 24 -39 38 55 16 113 -17 43 -85 131 -86 110z"/>
<path d="M673 1887 c-31 -32 -58 -76 -51 -82 7 -8 70 58 79 83 14 36 7 36 -28
-1z"/>
<path d="M1563 1649 c33 -28 48 -51 53 -76 7 -36 7 -36 20 -12 30 54 11 87
-65 114 -60 21 -60 20 -8 -26z"/>
<path d="M1820 1572 c0 -41 14 -69 51 -104 25 -23 29 -34 29 -83 0 -61 7 -80
53 -137 16 -20 35 -61 42 -90 l13 -53 22 49 c18 40 21 61 17 108 -8 85 -40
143 -127 228 -42 41 -82 84 -88 95 -10 18 -11 17 -12 -13z"/>
<path d="M363 1240 c-19 -30 -15 -70 12 -120 l25 -45 -7 40 c-3 22 -9 64 -12
93 -5 47 -7 50 -18 32z"/>
<path d="M1041 1247 c2 -1 13 -9 24 -17 19 -14 19 -14 6 3 -7 9 -18 17 -24 17
-6 0 -8 -1 -6 -3z"/>
</g>
</svg>
